PathFileType	4	(X/Y/Z)	C:/Users/beibeiliu/ov580/test_trc/capture2\sequence.2_training_dense_left.trc
DataRate	CameraRate	NumFrames	NumMarkers	Units	OrigDataRate	OrigDataStartFrame	OrigNumFrames
120	120	9	19	mm	120	157	313
Frame#	Time	ThumbCMC			ThumbMCP			ThumbIP			ThumbTip			IndexMCP			IndexPIP			IndexTip			MiddleMCP			MiddlePIP			MiddleTip			RingMCP			RingPIP			RingTip			PinkyMCP			PinkyPIP			PinkyTip			BackHand1			BackHand2			BackHand3	
		X0	Y0	Z0	X1	Y1	Z1	X2	Y2	Z2	X3	Y3	Z3	X4	Y4	Z4	X5	Y5	Z5	X6	Y6	Z6	X7	Y7	Z7	X8	Y8	Z8	X9	Y9	Z9	X10	Y10	Z10	X11	Y11	Z11	X12	Y12	Z12	X13	Y13	Z13	X14	Y14	Z14	X15	Y15	Z15	X16	Y16	Z16	X17	Y17	Z17	X18	Y18	Z18	
156	1.3	-147.873	33.3637	-15.1719	-127.719	28.9407	-38.7153	-112.564	34.2279	-64.1778	-110.993	29.807	-88.7227	-164.883	53.1745	-84.6275	-143.302	47.5546	-104.053	-122.69	29.3276	-86.1849	-168.528	36.0196	-96.5028	-140.647	25.8588	-107.937	-122.326	7.08198	-80.6477	-173.112	15.7194	-97.9298	-142.674	9.12175	-103.415	-125.889	-2.36661	-76.7486	-181.097	0.292971	-87.2542	-156.378	-4.63457	-102.127	-131.181	-13.0786	-81.7044	-199.412	12.2096	-46.2404	-201.726	5.7105	-15.3707	-187.866	33.4649	-25.1749	
157	1.30833	-141.152	29.1923	-10.2253	-118.948	19.8805	-31.8947	-102.62	22.2533	-59.0406	-104.838	15.057	-84.1735	-149.103	50.8819	-82.1418	-127.99	40.4307	-101.001	-109.663	19.725	-79.3887	-158.385	29.4644	-93.2697	-127.175	17.7697	-104.733	-115.136	-2.64258	-73.5861	-163.281	8.76577	-96.3084	-134.142	-0.738268	-100.338	-120.777	-12.0175	-70.4302	-172.894	-5.47769	-91.1239	-146.526	-12.7349	-99.6493	-127.3	-15.7081	-74.5102	-194.787	9.5231	-50.0663	-200.27	3.56532	-18.6285	-179.112	34.56	-22.714	
158	1.31667	-137.088	22.2927	-12.825	-110.507	12.9601	-32.1228	-98.193	9.71509	-52.8264	-94.484	3.31265	-77.5505	-136.633	40.8111	-84.6051	-112.924	27.0224	-97.9632	-102.182	6.0216	-75.1577	-142.181	23.9746	-95.9709	-118.287	7.98204	-102.831	-108.824	-12.5784	-72.6527	-151.222	3.25261	-98.4667	-124.642	-10.1199	-97.0922	-116.287	-22.464	-68.2784	-164.766	-11.6433	-92.3641	-140.157	-24.9384	-96.1545	-124.904	-27.2181	-65.5328	-187.545	8.03198	-48.073	-197.61	3.29372	-20.6531	-173.038	32.6203	-26.2082	
159	1.325	-131.105	16.5348	-7.69712	-104.012	4.84447	-28.858	-89.2845	0.396861	-51.8941	-88.2379	-8.75371	-75.2792	-122.559	35.0413	-78.4738	-98.3823	14.9953	-93.0139	-96.3373	-5.53404	-71.0993	-134.843	15.7713	-91.9045	-109.224	-6.42225	-97.5707	-103.669	-22.4592	-65.1194	-144.675	-3.04842	-94.4064	-117.167	-18.5575	-92.77	-113.885	-28.2436	-61.0915	-157.107	-13.6589	-89.6904	-132.649	-28.2707	-91.2117	-120.285	-33.5347	-63.5509	-182.825	8.54437	-49.9624	-192.942	5.85654	-23.8821	-166.252	28.654	-28.6745	
160	1.33333	-128.186	9.73293	-4.61017	-102.004	-3.92837	-22.5207	-83.5339	-10.9112	-44.5195	-83.1546	-20.089	-72.7094	-113.665	25.3627	-78.9161	-91.4396	6.56	-89.8328	-90.0312	-16.7828	-62.4242	-121.693	9.94418	-89.8092	-101.395	-14.4561	-91.756	-103.111	-32.7769	-57.8077	-137.557	-5.21581	-89.9649	-114.109	-31.9137	-87.4799	-114.124	-37.8217	-57.8758	-153.503	-18.7796	-87.3673	-127.64	-38.6746	-85.2283	-121.244	-38.1026	-53.7731	-171.539	11.6528	-51.8578	-183.976	8.52404	-21.5426	-157.241	29.1124	-23.8847	
161	1.34167	-123.953	4.86336	-2.20727	-96.2294	-13.0735	-16.9477	-81.8669	-21.3926	-40.3858	-80.1996	-29.9087	-66.1886	-102.567	19.8087	-71.5892	-83.3376	-0.603005	-84.8433	-89.09	-25.7295	-58.2419	-117.973	3.85236	-84.1473	-99.1044	-23.2986	-89.2074	-102.249	-40.5988	-56.4316	-130.846	-11.3242	-90.3208	-110.804	-33.8827	-84.6533	-115.958	-42.8383	-50.8742	-149.514	-20.422	-84.3483	-126.913	-39.9274	-84.1105	-125.226	-47.0784	-51.8571	-166.143	9.18521	-51.1355	-182.035	7.13274	-24.9374	-151.961	24.2492	-25.62	
162	1.35	-120.985	0.807723	-0.980211	-95.2348	-19.3691	-14.9047	-79.2274	-30.1874	-32.6148	-80.2778	-37.739	-58.3661	-95.4983	13.5989	-68.6996	-80.0009	-14.7475	-79.5564	-86.9092	-34.0847	-52.6704	-109.508	-1.93595	-83.9636	-91.3487	-30.528	-82.5159	-99.2546	-44.5586	-51.1617	-122.227	-15.9614	-86.8685	-110.176	-41.2964	-81.2502	-115.02	-48.1728	-49.3249	-143.22	-23.4202	-85.2129	-126.163	-48.2837	-80.4705	-126.096	-48.7874	-45.0091	-162.406	8.10933	-48.3628	-176.514	9.01394	-24.02	-143.765	23.9761	-19.5276	
163	1.35833	-116.145	-2.99186	2.26725	-96.1921	-24.226	-8.64555	-77.1081	-36.9461	-32.3743	-78.1281	-45.8751	-53.9415	-90.4892	5.58652	-65.7043	-76.4379	-21.6154	-75.4297	-84.4443	-40.3728	-50.8933	-103.14	-6.2694	-79.3354	-92.0008	-34.8808	-81.8777	-98.2686	-48.6979	-48.6822	-121.872	-18.0587	-82.7924	-106.416	-44.0672	-79.746	-112.264	-49.3288	-45.0718	-138.89	-24.7076	-79.8729	-122.373	-49.1127	-77.8797	-125.601	-52.8257	-47.2936	-158.833	8.47844	-46.9892	-171.46	10.4001	-19.2732	-139.057	20.6307	-16.3657	
164	1.36667	-114.812	-6.83317	4.11018	-95.2157	-29.4268	-5.65125	-80.225	-41.1439	-28.2694	-76.9475	-50.211	-51.494	-82.7397	0.903682	-62.3676	-70.1563	-25.913	-70.573	-83.0884	-44.2545	-47.9628	-97.9808	-7.62028	-73.7796	-88.6038	-39.9976	-76.9665	-102.487	-51.7942	-44.2433	-116.212	-19.6162	-80.4754	-106.992	-49.3108	-77.702	-112.238	-53.1146	-45.8999	-137.788	-25.122	-78.966	-119.12	-49.6335	-74.3292	-122.413	-51.1425	-41.9445	-152.977	7.22737	-44.51	-171.057	10.9104	-18.7693	-132.588	19.8475	-17.6212	
